<svg width="19" height="22" fill="none" xmlns="http://www.w3.org/2000/svg"><path d="M9.99.012C15.007.248 19 4.092 19 8.8l-.015.456c-.271 4.278-4.297 8.584-8.277 11.218h6.615a.75.75 0 110 1.5H2.235a.75.75 0 010-1.5h5.702C4.534 18.374 0 12.974 0 8.8 0 3.94 4.253 0 9.5 0l.49.012zM9.5 1.5c-4.528 0-8 3.374-8 7.3 0 1.896 1.258 4.4 3.15 6.691a19.94 19.94 0 002.885 2.864c.693.552 1.318.948 1.83 1.198 1.916-1.196 3.885-2.824 5.41-4.65 1.71-2.049 2.725-4.174 2.725-6.103 0-3.926-3.472-7.3-8-7.3zm.271 2.957c2.215.104 3.976 1.8 3.976 3.878l-.006.2c-.112 2.05-1.943 3.682-4.185 3.682l-.216-.005c-2.143-.1-3.861-1.693-3.97-3.678l-.006-.199c0-2.144 1.877-3.883 4.192-3.883l.215.005zm-.215.995c-1.836 0-3.192 1.362-3.192 2.883 0 1.52 1.356 2.882 3.192 2.882 1.835 0 3.19-1.361 3.191-2.882 0-1.521-1.356-2.883-3.191-2.883z" fill="#2C5082"/></svg>