<svg width="22" height="23" fill="none" xmlns="http://www.w3.org/2000/svg"><path d="M14.112 19.3c0 .796-.328 1.559-.911 2.121a3.172 3.172 0 01-2.2.879 3.172 3.172 0 01-2.201-.879 2.946 2.946 0 01-.912-2.121h1.267c0 .472.195.924.54 1.258.347.333.816.52 1.305.52.49 0 .959-.187 1.305-.52.346-.334.54-.786.54-1.258h1.267z" fill="#2C5082"/><path d="M11 19.307H1.664s-1.037-.5-.519-1.5c2.029-3.01 2.78-5.122 3.112-10 .511-3.287 1.773-4.3 6.224-4.507H11m0 16.007h9.336s1.037-.5.519-1.5c-2.029-3.01-2.78-5.123-3.112-10-.511-3.287-1.773-4.3-6.224-4.507H11" stroke="#2C5082" stroke-width="1.5"/><path d="M2.183 16.3h17.634" stroke="#2C5082"/><path d="M13.593 3a3.42 3.42 0 00-.197-1.148 3.068 3.068 0 00-.562-.973 2.594 2.594 0 00-.841-.65A2.292 2.292 0 0011 0a2.3 2.3 0 00-.992.228c-.315.151-.6.372-.842.65-.24.28-.432.61-.562.974A3.42 3.42 0 008.407 3h1.008c0-.24.04-.48.12-.702a1.89 1.89 0 01.344-.595c.147-.17.322-.305.514-.397a1.394 1.394 0 011.214 0c.192.092.367.227.514.397.147.17.264.373.344.595.08.223.12.461.12.702h1.008z" fill="#2C5082"/></svg>