<svg width="23" height="24" fill="none" xmlns="http://www.w3.org/2000/svg"><path d="M13.5 17.907c0-1.244-.64-1.511-2.5-1.527" stroke="#2C5082"/><path d="M16.5 23V11.287c0-2.037-2-3.565-5-5.092" stroke="#2C5082" stroke-width="1.3"/><path d="M20.5 23h-19S1 23 1 21.472v-6.11c0-.51 1-1.02 1-1.02l3-1.527 1-.51" stroke="#2C5082" stroke-width="1.5"/><path d="M1.9 23h19.487s.513 0 .513-1.455v-5.82c0-.485-1.026-.97-1.026-.97L17.797 13.3l-1.025-.485" stroke="#2C5082" stroke-width="1.5"/><path d="M6 23V11.287c0-2.037 2-3.565 5-5.092" stroke="#2C5082" stroke-width="1.3"/><path d="M9 22.49v-4.583m4.5 4.583v-4.583m-4.502 0c0-1.244.64-1.512 2.5-1.528" stroke="#2C5082"/><path d="M8.5 3.037H14M11.3 1v5.296" stroke="#2C5082" stroke-width="1.5" stroke-linecap="round"/><path d="M11.35 10.078c.6 0 1.1.498 1.1 1.128 0 .63-.5 1.127-1.1 1.127-.6 0-1.1-.497-1.1-1.127s.5-1.128 1.1-1.128z" stroke="#2C5082" stroke-width=".8"/></svg>