<svg width="27" height="22" fill="none" xmlns="http://www.w3.org/2000/svg"><path d="M8.185 11.863l2.244 1.782-.955.837L7.27 12.72l.914-.856zM10.446 8.5v.469c0 .644-.084 1.222-.252 1.734a3.742 3.742 0 01-.72 1.307c-.313.36-.686.635-1.12.826a3.594 3.594 0 01-1.44.281 3.58 3.58 0 01-1.436-.281 3.225 3.225 0 01-1.12-.826 3.838 3.838 0 01-.738-1.307c-.172-.512-.258-1.09-.258-1.734V8.5c0-.645.086-1.22.258-1.729.172-.511.414-.947.727-1.306a3.13 3.13 0 011.119-.826A3.516 3.516 0 016.9 4.352a3.53 3.53 0 011.442.287c.437.187.812.463 1.125.826.312.36.553.795.72 1.306.172.508.258 1.084.258 1.729zm-1.476.469v-.48c0-.477-.047-.897-.14-1.26a2.586 2.586 0 00-.405-.92 1.69 1.69 0 00-.65-.563 1.902 1.902 0 00-.874-.193c-.32 0-.607.064-.861.193a1.75 1.75 0 00-.65.563c-.18.246-.317.552-.41.92a5.052 5.052 0 00-.141 1.26v.48c0 .476.047.898.14 1.265.094.368.231.678.41.932.184.25.403.44.657.568.258.125.547.188.867.188.328 0 .62-.063.873-.188.254-.129.469-.318.645-.568a2.8 2.8 0 00.398-.932c.094-.367.14-.789.14-1.265zm11.72-3.364L18.14 13H16.6l3.21-8.531h.985l-.106 1.136zM22.822 13l-2.554-7.395-.112-1.136h.99L24.37 13h-1.547zM22.7 9.836v1.166h-4.64V9.836h4.64zm-9.852-1.123l1.042-.702c.174-.116.298-.23.373-.34a.754.754 0 00.112-.423.581.581 0 00-.166-.399c-.11-.121-.267-.182-.469-.182a.616.616 0 00-.577.357.855.855 0 00-.07.352c0 .125.032.254.095.386.064.13.151.267.262.411.11.141.235.294.373.457L16.68 12h-1.16l-2.333-2.743c-.202-.244-.38-.467-.535-.669a3.105 3.105 0 01-.361-.593 1.463 1.463 0 01-.129-.598c0-.315.065-.586.195-.813.13-.227.314-.401.552-.523.238-.125.516-.187.834-.187.308 0 .572.062.793.187a1.303 1.303 0 01.594 1.672c-.07.158-.165.302-.287.432-.121.13-.263.253-.423.37l-1.266.92a1.557 1.557 0 00-.328.345 1.006 1.006 0 00-.17.54c0 .177.037.337.112.481.078.144.19.259.336.345.15.083.33.124.544.124.23 0 .452-.05.668-.153.216-.105.41-.254.581-.444a2.14 2.14 0 00.407-.685 2.44 2.44 0 00.154-.884h.863c0 .293-.03.571-.087.834a2.591 2.591 0 01-.27.73 2.22 2.22 0 01-.482.602c-.019.02-.041.045-.066.075a.543.543 0 01-.066.07 2.38 2.38 0 01-.801.49 2.76 2.76 0 01-.938.158c-.402 0-.749-.073-1.042-.22a1.65 1.65 0 01-.68-.606 1.657 1.657 0 01-.237-.884c0-.246.05-.462.153-.647a1.97 1.97 0 01.42-.523c.18-.164.387-.327.622-.49z" fill="#2C5082"/><path d="M4 .75h19A3.25 3.25 0 0126.25 4v9.725a3.25 3.25 0 01-3.25 3.25h-2.1c-.763 0-1.5.28-2.07.788l-2.626 2.332c-.408.362-1.038-.024-.901-.552a2.053 2.053 0 00-1.987-2.568H4a3.25 3.25 0 01-3.25-3.25V4A3.25 3.25 0 014 .75z" stroke="#2C5082" stroke-width="1.5" stroke-linejoin="bevel"/></svg>