<svg width="22" height="24" fill="none" xmlns="http://www.w3.org/2000/svg"><path d="M6.635 6.762c0-2.62-1.5-5.762 3-5.762s3.5 5.238 3.5 5.238" stroke="#2C5082" stroke-width="1.5" stroke-linecap="round"/><path d="M8.139 21.428c-5.509.766-6.343-.299-7-6.81-.658-6.511.996-8.38 5.498-7.857h5.998c4.5 0 5 .525 5.5 3.144" stroke="#2C5082" stroke-width="1.5" stroke-linecap="round"/><ellipse cx="10.135" cy="14.619" rx="1.5" ry="1.571" fill="#2C5082"/><mask id="a" fill="#fff"><path d="M17.635 11.162c2.21 0 4 1.876 4 4.19 0 2.315-1.79 4.191-4 4.191-2.209 0-4-1.876-4-4.19 0-2.315 1.791-4.19 4-4.19z"/></mask><path d="M21.635 15.352h2-2zm-8 0h-2 2zm4-4.19v2c1.018 0 2 .892 2 2.19h4c0-3.33-2.6-6.19-6-6.19v2zm4 4.19h-2c0 1.299-.982 2.191-2 2.191v4c3.4 0 6-2.86 6-6.19h-2zm-4 4.191v-2c-1.018 0-2-.892-2-2.19h-4c0 3.33 2.6 6.19 6 6.19v-2zm-4-4.19h2c0-1.299.982-2.19 2-2.19v-4c-3.4 0-6 2.86-6 6.19h2z" fill="#2C5082" mask="url(#a)"/><path d="M15.135 17.762l-5 5.238m3.5-3.667l1.5 1.572m-3 0l1.5 1.571" stroke="#2C5082" stroke-width="1.5" stroke-linecap="round"/></svg>