<svg width="28" height="22" fill="none" xmlns="http://www.w3.org/2000/svg"><path d="M18.599.143c1.819-.245 3.636-.161 5.907.143l.651.086v3.495h-1.5V1.69c-1.89-.224-3.389-.26-4.858-.062-1.634.22-3.274.735-5.41 1.655l-.574.246v16.902c1.635-1.36 3.149-2.208 4.957-2.612 1.665-.373 3.529-.357 5.885-.097v-5.42a.75.75 0 011.5 0v7.115l-.845-.107c-2.718-.346-4.614-.385-6.212-.027-1.575.352-2.927 1.104-4.52 2.463a.746.746 0 01-.765.122v.068l-1.134-.674c-1.995-1.187-3.555-1.886-5.173-2.252-1.62-.367-3.349-.412-5.698-.223l-.81.065V.357L.664.28C3.146-.005 5.036-.056 6.836.198c1.803.254 3.474.808 5.523 1.684a.743.743 0 01.196.127l.24-.103C15 .956 16.78.388 18.6.143zM6.626 1.683c-1.47-.207-3.043-.194-5.126.017v15.536c2.044-.124 3.719-.055 5.339.312 1.486.337 2.893.917 4.476 1.78V3.072C9.54 2.337 8.12 1.894 6.626 1.683zm16.142 2.772a1 1 0 011.337.093l2.736 2.833a1 1 0 01-.026 1.414l-7.021 6.781a.999.999 0 01-.692.28l-3.297.601a1.002 1.002 0 01-1.157-1.197l.717-3.272a.998.998 0 01.304-.685l7.021-6.78.078-.068zm-7.143 11.019l3.219-.589-2.53-2.566-.689 3.155zm-8.627-2.143a.75.75 0 010 1.493l-.076.004H3.836a.75.75 0 010-1.5h3.086l.076.003zm9.91-1.835l2.766 2.807 4.55-4.395L21.46 7.1l-4.55 4.394zm-7.339-.774a.75.75 0 010 1.492l-.076.004H3.836a.75.75 0 010-1.5h5.657l.076.004zm12.61-4.315l2.764 2.805 1.178-1.135-2.736-2.834-1.206 1.164zm-13.2 1.18a.75.75 0 010 1.5H3.836a.75.75 0 010-1.5h5.143zm0-2.611a.75.75 0 010 1.5H3.836a.75.75 0 110-1.5h5.143z" fill="#2C5082"/></svg>