<svg width="159" height="63" fill="none" xmlns="http://www.w3.org/2000/svg"><path d="M.6 22.424c0-5.947 2.255-11.651 6.268-15.856C10.88 2.362 16.324 0 22 0s11.119 2.362 15.132 6.568c4.013 4.205 6.268 9.909 6.268 15.856h-3.852c0-4.877-1.849-9.554-5.14-13.002C31.118 5.974 26.654 4.036 22 4.036S12.883 5.974 9.592 9.422c-3.291 3.448-5.14 8.125-5.14 13.002H.6z" fill="#D5AF65"/><path d="M9.6 18.686h25v5.34h-25v-5.34z" fill="#D5AF65"/><path fill="#D5AF65" d="M19.1 9.61h5v39.508h-5z"/><path d="M1.1 40.674c11.579-.558 15.507 1.698 21 7.236 5.814-5.64 9.951-7.845 21.5-7.236v10.613c-10.014-.481-14.867.45-21.5 5.306-5.145-4.49-10.161-5.42-21.5-5.306l.5-10.613z" fill="#1B3556"/><path d="M1.6 53.39c11.1-1.03 14.694.553 21 5.873 7.603-5.418 11.27-7.177 21-5.873l1 3.203c-10.061-.228-14.865 1.178-22 6.407-6.24-5.103-10.944-6.63-22-6.407l1-3.203z" fill="#1B3556"/><path d="M43.45 22.424H39.6l.5 28.83 4 .534-.65-29.364zm-42.8 0H4.5L4 51.254l-4 .534.65-29.364z" fill="#D5AF65"/><path d="M60.615 18H68.4v.435h-7.785V18zm0 5.34H68.4v.42h-7.785v-.42zm6.93-10.47h-.15l.885-.99 1.77 1.395a.736.736 0 01-.225.195c-.1.05-.225.09-.375.12v10.95c-.01.04-.1.11-.27.21-.17.1-.38.185-.63.255-.24.08-.475.12-.705.12h-.3V12.87zm-7.785 0v-.81l1.98.81h6.87v.42h-7.005v11.265c0 .08-.07.175-.21.285-.14.11-.33.205-.57.285-.23.08-.48.12-.75.12h-.315V12.87zm14.82 1.995h11.13l1.035-1.41.18.165c.13.1.29.235.48.405.2.16.405.335.615.525.22.18.415.35.585.51-.03.16-.17.24-.42.24H74.7l-.12-.435zm3.165 6.81h5.13l.915-1.32.165.15c.11.09.25.215.42.375.18.16.36.33.54.51.19.17.36.33.51.48-.04.16-.18.24-.42.24h-7.14l-.12-.435zm2.895-10.41l2.445.255c-.01.12-.06.22-.15.3-.08.08-.24.14-.48.18v12.81c0 .06-.075.13-.225.21-.14.08-.32.15-.54.21-.22.07-.455.105-.705.105h-.345v-14.07zm-.945 3.6h2.175v.24c-.59 1.63-1.5 3.095-2.73 4.395-1.22 1.29-2.73 2.355-4.53 3.195l-.135-.15c.84-.64 1.6-1.375 2.28-2.205.69-.84 1.28-1.73 1.77-2.67.5-.94.89-1.875 1.17-2.805zm2.835 0c.31.69.695 1.34 1.155 1.95.46.61.97 1.17 1.53 1.68.56.5 1.145.945 1.755 1.335.62.39 1.24.71 1.86.96l-.06.165c-.36.07-.68.245-.96.525-.27.27-.475.62-.615 1.05-.78-.52-1.48-1.145-2.1-1.875a12.59 12.59 0 01-1.605-2.535c-.45-.96-.83-2.015-1.14-3.165l.18-.09zm9.72-1.665h10.695l.885-1.2.15.135c.11.09.25.21.42.36.17.14.345.29.525.45.18.16.345.31.495.45-.04.16-.175.24-.405.24H92.37l-.12-.435zm2.49 8.745h5.475l.885-1.14.165.135c.11.08.245.19.405.33.17.13.345.275.525.435.18.15.35.295.51.435-.04.16-.18.24-.42.24H94.86l-.12-.435zm-2.25 2.565h9.6l1.05-1.32.195.15c.13.09.295.215.495.375.2.15.41.315.63.495.22.18.42.345.6.495-.03.16-.17.24-.42.24H92.61l-.12-.435zm-.825-5.745h11.55l.93-1.275.165.15c.11.09.25.21.42.36.18.14.365.295.555.465.19.17.36.335.51.495-.04.16-.18.24-.42.24h-13.59l-.12-.435zm4.215-3.72h5.745v.435H95.88v-.435zm0 1.845h5.745v.435H95.88v-.435zm-.75-5.61l2.34.21c-.02.1-.07.19-.15.27-.07.07-.205.125-.405.165v7.035H95.13v-7.68zm2.64 8.64l2.325.195c-.01.1-.05.185-.12.255-.07.07-.2.12-.39.15v4.11H97.77v-4.71zm2.73-8.64l2.37.21a.45.45 0 01-.135.285c-.08.07-.22.12-.42.15v7.035H100.5v-7.68zm-5.235 7.485h2.145v.24c-.53.89-1.29 1.65-2.28 2.28-.98.63-2.115 1.14-3.405 1.53l-.105-.195c.84-.47 1.57-1.04 2.19-1.71a8.566 8.566 0 001.455-2.145zm5.49.015c.25.29.575.545.975.765.41.22.855.405 1.335.555.48.15.965.265 1.455.345.5.08.97.135 1.41.165l-.03.225c-.32.26-.57.55-.75.87-.17.31-.275.66-.315 1.05a7.612 7.612 0 01-1.695-.93 9.24 9.24 0 01-1.47-1.32c-.44-.49-.815-1-1.125-1.53l.21-.195zm12 1.77h6.51v.42h-6.51v-.42zm0 1.755h6.51v.42h-6.51v-.42zm0 1.8h6.51v.42h-6.51v-.42zm5.895-5.25h-.15l.81-.87 1.65 1.26a.801.801 0 01-.21.165c-.09.05-.205.09-.345.12v5.25c0 .04-.08.095-.24.165a3.99 3.99 0 01-.585.195c-.23.06-.44.09-.63.09h-.3v-6.375zm-7.17 0v-.735l1.845.735h6.045v.42h-6.15v5.505c0 .06-.075.135-.225.225-.14.09-.325.17-.555.24-.22.07-.45.105-.69.105h-.27v-6.495zm2.445-3.69c.6.06 1.07.175 1.41.345.35.16.595.35.735.57.14.21.195.415.165.615-.02.19-.1.355-.24.495a.886.886 0 01-.54.225c-.21.01-.435-.07-.675-.24a2.956 2.956 0 00-.375-1.035 4.69 4.69 0 00-.615-.885l.135-.09zm3.375-2.79c.28.91.7 1.685 1.26 2.325.56.63 1.215 1.15 1.965 1.56.75.41 1.55.735 2.4.975l-.015.165c-.67.15-1.115.615-1.335 1.395a8.57 8.57 0 01-2.085-1.44 7.318 7.318 0 01-1.485-2.025c-.39-.8-.695-1.75-.915-2.85l.21-.105zm-8.34 1.965h5.625l.84-1.065.255.21c.18.13.385.295.615.495.24.19.455.37.645.54-.04.16-.175.24-.405.24h-7.455l-.12-.42zm7.32-1.965h5.085v.42h-4.95l-.135-.42zm3.915 0h-.18l.915-.9 1.56 1.335a.383.383 0 01-.21.165 1.73 1.73 0 01-.375.075 7.84 7.84 0 01-2.31 3.27c-1.06.9-2.49 1.56-4.29 1.98l-.09-.195c1.4-.59 2.505-1.375 3.315-2.355a8.17 8.17 0 001.665-3.375zm-7.395.465h1.425l.765-1.02.24.195c.17.13.365.29.585.48.23.19.43.37.6.54-.04.16-.175.24-.405.24h-3.21v-.435zm-.735-1.59l2.16.18c-.01.1-.055.19-.135.27-.08.07-.22.12-.42.15v2.61h-1.605v-3.21zm0 3.105h1.605v2.535c0 .34-.045.635-.135.885-.08.24-.25.43-.51.57-.25.14-.645.235-1.185.285a7.348 7.348 0 00-.045-.555c-.02-.17-.06-.305-.12-.405a.74.74 0 00-.27-.255c-.11-.08-.29-.135-.54-.165v-.21l.195.015c.13 0 .27.005.42.015.16.01.275.015.345.015.11 0 .175-.02.195-.06a.27.27 0 00.045-.165v-2.505zm-1.815.585l1.8.705a.458.458 0 01-.195.195c-.09.05-.22.07-.39.06a7.551 7.551 0 01-1.215 1.515c-.46.44-.935.8-1.425 1.08l-.195-.15c.31-.4.61-.9.9-1.5.3-.61.54-1.245.72-1.905zm22.005-3.465l1.965.945a.382.382 0 01-.195.18c-.09.03-.23.03-.42 0-.48.9-1.09 1.83-1.83 2.79-.73.96-1.59 1.875-2.58 2.745-.99.86-2.12 1.595-3.39 2.205l-.135-.15c.79-.56 1.525-1.19 2.205-1.89.68-.71 1.3-1.45 1.86-2.22.56-.78 1.05-1.565 1.47-2.355.43-.79.78-1.54 1.05-2.25zm-5.76 6.18h5.085v.435h-4.95l-.135-.435zm2.67 1.425l2.16.195c-.03.2-.195.32-.495.36v3.72c0 .38-.05.705-.15.975-.09.28-.29.5-.6.66-.31.17-.785.285-1.425.345a4.19 4.19 0 00-.105-.69c-.05-.19-.13-.345-.24-.465-.12-.13-.275-.24-.465-.33-.18-.09-.455-.165-.825-.225v-.21l.24.015c.16.01.35.025.57.045l.645.03c.2.01.335.015.405.015.12 0 .195-.02.225-.06.04-.04.06-.105.06-.195V19.08zm-3.18 1.77a88.99 88.99 0 003.12-.36l2.19-.285c.78-.11 1.57-.22 2.37-.33l.03.21c-.72.27-1.615.595-2.685.975-1.07.37-2.365.785-3.885 1.245a.625.625 0 01-.405.36l-.735-1.815zm4.98-3.195h-.165l.81-.825 1.47 1.275c-.06.06-.135.1-.225.12-.09.02-.21.04-.36.06-.35.22-.76.46-1.23.72a7.78 7.78 0 01-1.365.615h-.225c.17-.17.335-.375.495-.615.16-.25.31-.495.45-.735.15-.24.265-.445.345-.615zm-2.655-6.36l2.205.18c-.01.1-.055.19-.135.27-.08.07-.22.12-.42.15v3.99h-1.65v-4.59zm-1.905 2.01h3.6l.72-.96.21.195c.15.12.325.27.525.45.2.17.38.335.54.495-.03.16-.155.24-.375.24h-5.1l-.12-.42zm-.6 2.37h6.24l.705-.945.225.195c.15.12.325.265.525.435.2.17.375.335.525.495-.03.16-.16.24-.39.24h-7.71l-.12-.42zm8.79-.6c.21 1.36.54 2.59.99 3.69.46 1.1 1.07 2.06 1.83 2.88.77.81 1.71 1.48 2.82 2.01l-.045.15c-.41.08-.74.235-.99.465-.25.24-.43.56-.54.96a7.948 7.948 0 01-2.265-2.46c-.57-.98-1.01-2.09-1.32-3.33-.3-1.24-.525-2.58-.675-4.02l.195-.345zm2.46-.435h1.95a20.017 20.017 0 01-.675 3.525 11.057 11.057 0 01-1.395 3.015c-.61.91-1.41 1.715-2.4 2.415-.99.69-2.22 1.26-3.69 1.71l-.09-.15c1.14-.6 2.1-1.275 2.88-2.025a9.626 9.626 0 001.89-2.445c.48-.89.84-1.84 1.08-2.85.24-1.01.39-2.075.45-3.195zm-2.34-3.33l2.415.585a.43.43 0 01-.18.24c-.09.06-.225.095-.405.105-.25 1.01-.555 1.95-.915 2.82-.36.86-.775 1.65-1.245 2.37-.46.71-.985 1.34-1.575 1.89l-.195-.12c.33-.67.635-1.43.915-2.28.29-.86.535-1.765.735-2.715.2-.96.35-1.925.45-2.895zm-.06 3.33h2.865l.945-1.215.165.135c.12.09.265.21.435.36.17.14.35.29.54.45.2.16.375.315.525.465-.04.16-.175.24-.405.24h-5.07v-.435zm11.22 1.305h6.54l.705-1.08.225.21c.15.14.32.31.51.51.2.19.375.375.525.555-.04.16-.17.24-.39.24h-7.995l-.12-.435zM150.6 13.5l2.115.195c-.01.11-.06.2-.15.27-.08.07-.205.115-.375.135v7.095c0 .37-.05.69-.15.96-.1.26-.31.47-.63.63-.31.15-.79.255-1.44.315-.03-.24-.075-.45-.135-.63a.941.941 0 00-.27-.45c-.13-.12-.305-.22-.525-.3-.21-.09-.525-.165-.945-.225v-.225l.27.03c.19.01.415.025.675.045.26.01.505.025.735.045.23.01.39.015.48.015.14 0 .23-.02.27-.06.05-.05.075-.13.075-.24V13.5zm-3.63 3.405c.64.2 1.135.44 1.485.72.36.28.6.565.72.855.13.28.17.54.12.78a.966.966 0 01-.315.585.857.857 0 01-.585.21c-.22-.01-.45-.125-.69-.345.01-.31-.03-.63-.12-.96-.08-.33-.19-.645-.33-.945a6.03 6.03 0 00-.435-.81l.15-.09zm-2.145 6.765h10.38v.435h-10.38v-.435zm9.645-11.235h-.15l.855-.96 1.68 1.35a.736.736 0 01-.225.195c-.1.05-.23.09-.39.12v11.565c0 .04-.08.105-.24.195-.16.1-.355.185-.585.255-.22.07-.44.105-.66.105h-.285V12.435zm-10.755 0v-.78l1.875.78h9.45v.42h-9.6v11.85c0 .07-.07.155-.21.255-.13.11-.305.205-.525.285-.21.08-.445.12-.705.12h-.285v-12.93zM57.936 40.872h17.376l1.752-2.208.312.24c.224.16.496.368.816.624.336.256.688.528 1.056.816.368.288.696.56.984.816-.064.256-.296.384-.696.384H58.128l-.192-.672zm9.048-7.152l4.032.36a.7.7 0 01-.264.456c-.128.112-.336.192-.624.24-.032 1.472-.08 2.912-.144 4.32A33.989 33.989 0 0169.6 43.2a17.091 17.091 0 01-1.056 3.792 13.572 13.572 0 01-2.04 3.48c-.88 1.088-2.024 2.112-3.432 3.072-1.392.944-3.112 1.816-5.16 2.616l-.216-.36c1.952-1.168 3.528-2.4 4.728-3.696 1.2-1.296 2.112-2.648 2.736-4.056.64-1.408 1.08-2.88 1.32-4.416.256-1.536.4-3.128.432-4.776.048-1.664.072-3.376.072-5.136zm3.024 7.296c.176 1.168.496 2.32.96 3.456a14.562 14.562 0 001.896 3.288c.816 1.056 1.848 2.04 3.096 2.952 1.248.896 2.744 1.696 4.488 2.4l-.048.264c-.72.144-1.304.44-1.752.888-.432.448-.712 1.08-.84 1.896-1.504-.912-2.752-1.968-3.744-3.168a16.729 16.729 0 01-2.4-3.84 21.894 21.894 0 01-1.368-4.128 39.02 39.02 0 01-.672-3.936l.384-.072zM90.72 33.84l3.576.36a.845.845 0 01-.24.456c-.112.112-.328.192-.648.24v18.912H90.72V33.84zm5.472 0l3.6.36a.72.72 0 01-.216.456c-.128.112-.344.192-.648.24v18.912h-2.736V33.84zm-11.16 5.472v-1.224l3.024 1.224h14.736v.672H87.84v15.072c0 .112-.112.248-.336.408-.224.16-.52.296-.888.408a3.275 3.275 0 01-1.128.192h-.456V39.312zm16.848 0h-.24l1.32-1.488 2.712 2.112c-.064.112-.184.216-.36.312-.16.08-.36.152-.6.216v14.544c-.016.08-.152.184-.408.312a6.057 6.057 0 01-.936.36 3.393 3.393 0 01-1.032.168h-.456V39.312zm-15.576 14.04h16.584v.696H86.304v-.696zm0-7.344h16.584v.696H86.304v-.696zm33.504-12.048l3.144 1.512a.612.612 0 01-.312.288c-.144.048-.368.048-.672 0-.768 1.44-1.744 2.928-2.928 4.464-1.168 1.536-2.544 3-4.128 4.392-1.584 1.376-3.392 2.552-5.424 3.528l-.216-.24a25.34 25.34 0 003.528-3.024 34.313 34.313 0 002.976-3.552 33.16 33.16 0 002.352-3.768 29.56 29.56 0 001.68-3.6zm-9.216 9.888h8.136v.696h-7.92l-.216-.696zm4.272 2.28l3.456.312c-.048.32-.312.512-.792.576v5.952c0 .608-.08 1.128-.24 1.56-.144.448-.464.8-.96 1.056-.496.272-1.256.456-2.28.552a6.704 6.704 0 00-.168-1.104 1.731 1.731 0 00-.384-.744 2.388 2.388 0 00-.744-.528c-.288-.144-.728-.264-1.32-.36v-.336l.384.024c.256.016.56.04.912.072.368.016.712.032 1.032.048.32.016.536.024.648.024.192 0 .312-.032.36-.096.064-.064.096-.168.096-.312v-6.696zm-5.088 2.832a142.383 142.383 0 004.992-.576l3.504-.456c1.248-.176 2.512-.352 3.792-.528l.048.336c-1.152.432-2.584.952-4.296 1.56a170.755 170.755 0 01-6.216 1.992c-.144.304-.36.496-.648.576l-1.176-2.904zm7.968-5.112h-.264l1.296-1.32 2.352 2.04a.716.716 0 01-.36.192 7.099 7.099 0 01-.576.096c-.56.352-1.216.736-1.968 1.152-.736.416-1.464.744-2.184.984h-.36c.272-.272.536-.6.792-.984.256-.4.496-.792.72-1.176.24-.384.424-.712.552-.984zm-4.248-10.176l3.528.288a.7.7 0 01-.216.432c-.128.112-.352.192-.672.24v6.384h-2.64v-7.344zm-3.048 3.216h5.76l1.152-1.536.336.312c.24.192.52.432.84.72.32.272.608.536.864.792-.048.256-.248.384-.6.384h-8.16l-.192-.672zm-.96 3.792h9.984l1.128-1.512.36.312c.24.192.52.424.84.696.32.272.6.536.84.792-.048.256-.256.384-.624.384H109.68l-.192-.672zm14.064-.96c.336 2.176.864 4.144 1.584 5.904.736 1.76 1.712 3.296 2.928 4.608 1.232 1.296 2.736 2.368 4.512 3.216l-.072.24c-.656.128-1.184.376-1.584.744-.4.384-.688.896-.864 1.536a12.718 12.718 0 01-3.624-3.936c-.912-1.568-1.616-3.344-2.112-5.328-.48-1.984-.84-4.128-1.08-6.432l.312-.552zm3.936-.696h3.12c-.208 2-.568 3.88-1.08 5.64a17.692 17.692 0 01-2.232 4.824c-.976 1.456-2.256 2.744-3.84 3.864-1.584 1.104-3.552 2.016-5.904 2.736l-.144-.24c1.824-.96 3.36-2.04 4.608-3.24 1.264-1.2 2.272-2.504 3.024-3.912a18.637 18.637 0 001.728-4.56c.384-1.616.624-3.32.72-5.112zm-3.744-5.328l3.864.936a.688.688 0 01-.288.384c-.144.096-.36.152-.648.168-.4 1.616-.888 3.12-1.464 4.512a23.563 23.563 0 01-1.992 3.792 16.016 16.016 0 01-2.52 3.024l-.312-.192a28.352 28.352 0 001.464-3.648 38.245 38.245 0 001.176-4.344c.32-1.536.56-3.08.72-4.632zm-.096 5.328h4.584l1.512-1.944.264.216c.192.144.424.336.696.576.272.224.56.464.864.72.32.256.6.504.84.744-.064.256-.28.384-.648.384h-8.112v-.696zm25.608 9.504c1.344.384 2.464.832 3.36 1.344.912.512 1.624 1.056 2.136 1.632.528.56.888 1.112 1.08 1.656.208.544.28 1.04.216 1.488-.064.448-.232.8-.504 1.056a1.371 1.371 0 01-.984.432c-.384.016-.808-.144-1.272-.48a9.073 9.073 0 00-.672-1.824 15.132 15.132 0 00-1.008-1.872c-.384-.624-.8-1.208-1.248-1.752-.432-.56-.88-1.064-1.344-1.512l.24-.168zm-12.576-2.136h15.864l1.656-2.04.288.216c.208.144.464.344.768.6.32.24.648.496.984.768.352.256.664.512.936.768-.064.24-.288.36-.672.36h-19.632l-.192-.672zm4.152-4.2h7.584l1.512-1.92.264.216a85.043 85.043 0 011.632 1.272c.336.256.632.496.888.72-.064.256-.28.384-.648.384h-11.04l-.192-.672zm-3.672 10.584c.72 0 1.64-.024 2.76-.072 1.12-.048 2.392-.096 3.816-.144 1.424-.064 2.952-.136 4.584-.216 1.648-.096 3.344-.192 5.088-.288l.024.36c-.992.288-2.136.592-3.432.912-1.296.32-2.8.656-4.512 1.008-1.712.368-3.68.776-5.904 1.224-.16.304-.4.48-.72.528l-1.704-3.312zm5.928-6.168h3.816a49.718 49.718 0 01-1.752 2.592 47.122 47.122 0 01-1.968 2.568 18.956 18.956 0 01-1.896 2.064h-.528c.192-.464.4-.992.624-1.584.224-.608.44-1.24.648-1.896a30.74 30.74 0 00.6-1.968c.192-.656.344-1.248.456-1.776zm4.608-11.28c-.544.896-1.248 1.784-2.112 2.664a25.453 25.453 0 01-2.928 2.496 29.026 29.026 0 01-3.456 2.136 28.539 28.539 0 01-3.696 1.584l-.144-.264a24.216 24.216 0 003.12-2.208A25.47 25.47 0 00141.312 39a23.443 23.443 0 002.256-2.904c.624-.96 1.056-1.856 1.296-2.688l4.416 1.08a.651.651 0 01-.336.384c-.176.08-.464.136-.864.168.56.704 1.232 1.352 2.016 1.944a20.095 20.095 0 002.544 1.584 27.49 27.49 0 002.832 1.224c.976.336 1.912.6 2.808.792l-.024.384a2.746 2.746 0 00-1.128.648c-.304.304-.56.648-.768 1.032-.192.384-.32.768-.384 1.152a18.871 18.871 0 01-3.48-2.112 16.078 16.078 0 01-2.832-2.88 15.312 15.312 0 01-1.968-3.48z" fill="#1B3556"/></svg>