<svg width="19" height="22" viewBox="0 0 19 22" fill="none" xmlns="http://www.w3.org/2000/svg">
<path d="M9.98926 0.0117188C15.0085 0.247593 18.9999 4.09179 19 8.7998L18.9854 9.25586C18.7138 13.5338 14.6878 17.8399 10.708 20.4736H17.3232C17.7375 20.4736 18.0732 20.8094 18.0732 21.2236C18.0732 21.6378 17.7374 21.9736 17.3232 21.9736H2.23535C1.82117 21.9736 1.48541 21.6378 1.48535 21.2236C1.48535 20.8094 1.82114 20.4736 2.23535 20.4736H7.9375C4.53359 18.3743 0 12.9731 0 8.7998C0.000114234 3.93979 4.25337 0 9.5 0L9.98926 0.0117188ZM9.5 1.5C4.97162 1.5 1.50012 4.87425 1.5 8.7998C1.5 10.6958 2.75833 13.2007 4.64941 15.4912C5.56594 16.6013 6.57512 17.5917 7.53516 18.3555C8.22833 18.9069 8.85335 19.3029 9.36523 19.5527C11.2806 18.3573 13.25 16.729 14.7754 14.9023C16.4855 12.8545 17.5 10.7289 17.5 8.7998C17.4999 4.87425 14.0284 1.5 9.5 1.5ZM9.77148 4.45703C11.9858 4.56119 13.7471 6.25792 13.7471 8.33496L13.7412 8.53418C13.6288 10.5853 11.7979 12.2167 9.55566 12.2168L9.33984 12.2119C7.19683 12.1113 5.47888 10.5192 5.37012 8.53418L5.36426 8.33496C5.36426 6.1908 7.24094 4.45215 9.55566 4.45215L9.77148 4.45703ZM9.55566 5.45215C7.71977 5.45215 6.36426 6.81378 6.36426 8.33496C6.36473 9.85582 7.72009 11.2168 9.55566 11.2168C11.3911 11.2167 12.7466 9.85576 12.7471 8.33496C12.7471 6.81384 11.3914 5.45226 9.55566 5.45215Z" fill="#2C5082"/>
</svg>
