<svg width="22" height="23" viewBox="0 0 22 23" fill="none" xmlns="http://www.w3.org/2000/svg">
<path d="M14.1122 19.3C14.1122 20.0957 13.7843 20.8588 13.2007 21.4214C12.6171 21.984 11.8255 22.3 11.0002 22.3C10.1748 22.3 9.38328 21.984 8.79966 21.4214C8.21605 20.8588 7.88818 20.0957 7.88818 19.3L9.15537 19.3C9.15537 19.7717 9.34973 20.2241 9.6957 20.5576C10.0417 20.8911 10.5109 21.0785 11.0002 21.0785C11.4894 21.0785 11.9587 20.8911 12.3046 20.5576C12.6506 20.2241 12.845 19.7717 12.845 19.3H14.1122Z" fill="#2C5082"/>
<path d="M10.9997 19.3071H1.66378C1.66378 19.3071 0.626574 18.8071 1.14524 17.8071C3.17363 14.797 3.92491 12.6845 4.25723 7.80713C4.76819 4.52012 6.02963 3.50691 10.4813 3.30029H11" stroke="#2C5082" stroke-width="1.5"/>
<path d="M11.0003 19.3069H20.3362C20.3362 19.3069 21.3734 18.8069 20.8548 17.8069C18.8264 14.7967 18.0751 12.6842 17.7428 7.80689C17.2318 4.51988 15.9704 3.50666 11.5187 3.30005H11" stroke="#2C5082" stroke-width="1.5"/>
<path d="M2.18262 16.3H19.8172" stroke="#2C5082"/>
<path d="M13.5934 3C13.5934 2.60603 13.5263 2.21593 13.396 1.85195C13.2657 1.48797 13.0746 1.15726 12.8338 0.87868C12.593 0.600104 12.3071 0.379125 11.9925 0.228361C11.6778 0.0775973 11.3406 -1.72208e-08 11.0001 0C10.6595 1.72208e-08 10.3223 0.0775973 10.0076 0.228361C9.693 0.379126 9.40712 0.600104 9.16631 0.87868C8.92549 1.15726 8.73447 1.48797 8.60414 1.85195C8.47382 2.21593 8.40674 2.60603 8.40674 3L9.4146 3C9.4146 2.75914 9.45561 2.52065 9.53529 2.29812C9.61496 2.0756 9.73175 1.87341 9.87897 1.7031C10.0262 1.53279 10.201 1.39769 10.3933 1.30552C10.5857 1.21335 10.7919 1.16591 11.0001 1.16591C11.2083 1.16591 11.4144 1.21335 11.6068 1.30552C11.7991 1.39769 11.9739 1.53279 12.1212 1.7031C12.2684 1.87341 12.3852 2.0756 12.4648 2.29812C12.5445 2.52065 12.5855 2.75914 12.5855 3H13.5934Z" fill="#2C5082"/>
</svg>
