<svg width="23" height="24" viewBox="0 0 23 24" fill="none" xmlns="http://www.w3.org/2000/svg">
<path d="M13.5 17.9074C13.4992 16.6635 12.8594 16.3958 11 16.3796" stroke="#2C5082"/>
<path d="M16.5 23.0001C16.5 23.0001 16.5 13.3242 16.5 11.2871C16.5 9.25012 14.5 7.72235 11.5 6.19458" stroke="#2C5082" stroke-width="1.3"/>
<path d="M20.5 23.0001H1.5C1.5 23.0001 1 23.0001 1 21.4723C1 21.4723 1 15.8705 1 15.3612C1 14.8519 2 14.3427 2 14.3427L5 12.8149L6 12.3057" stroke="#2C5082" stroke-width="1.5"/>
<path d="M1.8999 23.0001H21.3871C21.3871 23.0001 21.8999 23.0001 21.8999 21.5451C21.8999 21.5451 21.8999 16.21 21.8999 15.725C21.8999 15.24 20.8743 14.755 20.8743 14.755L17.7973 13.2999L16.7717 12.8149" stroke="#2C5082" stroke-width="1.5"/>
<path d="M6 23.0001C6 23.0001 6 13.3242 6 11.2871C6 9.25012 8 7.72235 11 6.19458" stroke="#2C5082" stroke-width="1.3"/>
<path d="M9 22.4908C9 22.4908 9 20.0077 9 18.4167V17.9075" stroke="#2C5082"/>
<path d="M13.5 22.4908C13.5 22.4908 13.5 20.0077 13.5 18.4167V17.9075" stroke="#2C5082"/>
<path d="M8.99805 17.9072C8.99881 16.6633 9.63862 16.3955 11.498 16.3794" stroke="#2C5082"/>
<path d="M8.5 3.03711H14" stroke="#2C5082" stroke-width="1.5" stroke-linecap="round"/>
<path d="M11.2998 1V6.29627" stroke="#2C5082" stroke-width="1.5" stroke-linecap="round"/>
<path d="M11.3501 10.0781C11.9507 10.0781 12.4497 10.5763 12.4497 11.2061C12.4495 11.8356 11.9506 12.333 11.3501 12.333C10.7496 12.333 10.2507 11.8356 10.2505 11.2061C10.2505 10.5763 10.7495 10.0781 11.3501 10.0781Z" stroke="#2C5082" stroke-width="0.8"/>
</svg>
