<svg width="27" height="22" viewBox="0 0 27 22" fill="none" xmlns="http://www.w3.org/2000/svg">
<path d="M8.18457 11.8633L10.4287 13.6445L9.47363 14.4824L7.27051 12.7188L8.18457 11.8633ZM10.4463 8.5V8.96875C10.4463 9.61328 10.3623 10.1914 10.1943 10.7031C10.0264 11.2148 9.78613 11.6504 9.47363 12.0098C9.16113 12.3691 8.78809 12.6445 8.35449 12.8359C7.9209 13.0234 7.44043 13.1172 6.91309 13.1172C6.38965 13.1172 5.91113 13.0234 5.47754 12.8359C5.04785 12.6445 4.6748 12.3691 4.3584 12.0098C4.04199 11.6504 3.7959 11.2148 3.62012 10.7031C3.44824 10.1914 3.3623 9.61328 3.3623 8.96875V8.5C3.3623 7.85547 3.44824 7.2793 3.62012 6.77148C3.79199 6.25977 4.03418 5.82422 4.34668 5.46484C4.66309 5.10156 5.03613 4.82617 5.46582 4.63867C5.89941 4.44727 6.37793 4.35156 6.90137 4.35156C7.42871 4.35156 7.90918 4.44727 8.34277 4.63867C8.78027 4.82617 9.15527 5.10156 9.46777 5.46484C9.78027 5.82422 10.0205 6.25977 10.1885 6.77148C10.3604 7.2793 10.4463 7.85547 10.4463 8.5ZM8.96973 8.96875V8.48828C8.96973 8.01172 8.92285 7.5918 8.8291 7.22852C8.73926 6.86133 8.60449 6.55469 8.4248 6.30859C8.24902 6.05859 8.03223 5.87109 7.77441 5.74609C7.52051 5.61719 7.22949 5.55273 6.90137 5.55273C6.58105 5.55273 6.29395 5.61719 6.04004 5.74609C5.78613 5.87109 5.56934 6.05859 5.38965 6.30859C5.20996 6.55469 5.07324 6.86133 4.97949 7.22852C4.88574 7.5918 4.83887 8.01172 4.83887 8.48828V8.96875C4.83887 9.44531 4.88574 9.86719 4.97949 10.2344C5.07324 10.6016 5.20996 10.9121 5.38965 11.166C5.57324 11.416 5.79199 11.6055 6.0459 11.7344C6.30371 11.8594 6.59277 11.9219 6.91309 11.9219C7.24121 11.9219 7.53223 11.8594 7.78613 11.7344C8.04004 11.6055 8.25488 11.416 8.43066 11.166C8.60645 10.9121 8.73926 10.6016 8.8291 10.2344C8.92285 9.86719 8.96973 9.44531 8.96973 8.96875Z" fill="#2C5082"/>
<path d="M20.6895 5.60547L18.1406 13H16.5996L19.8105 4.46875H20.7949L20.6895 5.60547ZM22.8223 13L20.2676 5.60547L20.1562 4.46875H21.1465L24.3691 13H22.8223ZM22.6992 9.83594V11.002H18.0586V9.83594H22.6992Z" fill="#2C5082"/>
<path d="M12.8479 8.71289L13.8896 8.01147C14.064 7.89526 14.1885 7.78182 14.2632 7.67114C14.3379 7.5577 14.3752 7.41659 14.3752 7.2478C14.3752 7.10392 14.3199 6.97111 14.2092 6.84937C14.0986 6.72762 13.9422 6.66675 13.7402 6.66675C13.5991 6.66675 13.4801 6.69995 13.3833 6.76636C13.2865 6.83 13.2131 6.91577 13.1633 7.02368C13.1163 7.12882 13.0928 7.24642 13.0928 7.37646C13.0928 7.50098 13.1246 7.62964 13.1882 7.76245C13.2519 7.8925 13.339 8.02946 13.4497 8.17334C13.5604 8.31445 13.6849 8.46663 13.8232 8.62988L16.6787 12H15.5208L13.1882 9.25659C12.9862 9.0131 12.8078 8.79036 12.6528 8.58838C12.4979 8.38363 12.3775 8.18579 12.2917 7.99487C12.206 7.80119 12.1631 7.60197 12.1631 7.39722C12.1631 7.08179 12.2281 6.81063 12.3582 6.58374C12.4882 6.35685 12.6722 6.18254 12.9102 6.06079C13.1481 5.93628 13.4262 5.87402 13.7444 5.87402C14.0515 5.87402 14.3158 5.93628 14.5371 6.06079C14.7612 6.18254 14.9328 6.3444 15.0518 6.54639C15.1735 6.74837 15.2344 6.96973 15.2344 7.21045C15.2344 7.40137 15.1998 7.57568 15.1306 7.7334C15.0614 7.89111 14.966 8.03499 14.8442 8.16504C14.7225 8.29508 14.5814 8.41821 14.4209 8.53442L13.155 9.45581C13.0084 9.57479 12.8991 9.68962 12.8271 9.80029C12.758 9.9082 12.7123 10.0078 12.6902 10.0991C12.6681 10.1904 12.657 10.2707 12.657 10.3398C12.657 10.5169 12.6943 10.6774 12.769 10.8213C12.8465 10.9652 12.9586 11.08 13.1052 11.1658C13.2546 11.2488 13.4359 11.2903 13.6489 11.2903C13.8786 11.2903 14.1013 11.2391 14.3171 11.1367C14.533 11.0316 14.7266 10.8835 14.8982 10.6926C15.0697 10.5017 15.2053 10.2734 15.3049 10.0078C15.4073 9.74219 15.4585 9.44751 15.4585 9.12378H16.3218C16.3218 9.41707 16.2927 9.69515 16.2346 9.95801C16.1793 10.2209 16.0894 10.4644 15.9648 10.6885C15.8431 10.9126 15.6826 11.1132 15.4834 11.2903C15.464 11.3097 15.4419 11.3346 15.417 11.365C15.3949 11.3927 15.3727 11.4162 15.3506 11.4355C15.1126 11.6541 14.8456 11.8174 14.5496 11.9253C14.2563 12.0304 13.9436 12.083 13.6116 12.083C13.2104 12.083 12.8631 12.0097 12.5698 11.863C12.2765 11.7164 12.0496 11.5144 11.8892 11.2571C11.7314 10.9998 11.6526 10.7051 11.6526 10.373C11.6526 10.1268 11.7038 9.91097 11.8062 9.72559C11.9085 9.53743 12.0483 9.36312 12.2253 9.20264C12.4052 9.03939 12.6127 8.87614 12.8479 8.71289Z" fill="#2C5082"/>
<path d="M4 0.75H23C24.7949 0.75 26.25 2.20507 26.25 4V13.7246C26.25 15.5195 24.7949 16.9746 23 16.9746H20.9004C20.1368 16.9747 19.4 17.2556 18.8291 17.7627L16.2041 20.0947C15.7962 20.4571 15.1656 20.0711 15.3027 19.543C15.6402 18.2433 14.6592 16.9746 13.3164 16.9746H4C2.20507 16.9746 0.75 15.5195 0.75 13.7246V4C0.75 2.20507 2.20507 0.75 4 0.75Z" stroke="#2C5082" stroke-width="1.5" stroke-linejoin="bevel"/>
</svg>
