<svg width="22" height="24" viewBox="0 0 22 24" fill="none" xmlns="http://www.w3.org/2000/svg">
<path d="M6.63507 6.7619C6.63507 4.14286 5.13488 1 9.63507 1C14.1353 1 13.1351 6.23809 13.1351 6.23809" stroke="#2C5082" stroke-width="1.5" stroke-linecap="round"/>
<path d="M8.1387 21.4277C2.63014 22.1939 1.79603 21.1293 1.13871 14.6181C0.481379 8.10702 2.13525 6.23804 6.63721 6.761C6.63721 6.761 8.13525 6.761 12.6353 6.761C17.1353 6.761 17.6353 7.28568 18.1353 9.90473" stroke="#2C5082" stroke-width="1.5" stroke-linecap="round"/>
<ellipse cx="10.1353" cy="14.619" rx="1.5" ry="1.57143" fill="#2C5082"/>
<mask id="path-4-inside-1_9039_373" fill="white">
<path d="M17.6353 11.1621C19.8444 11.1621 21.6353 13.0382 21.6353 15.3525C21.6352 17.6668 19.8443 19.543 17.6353 19.543C15.4262 19.543 13.6354 17.6668 13.6353 15.3525C13.6353 13.0382 15.4261 11.1621 17.6353 11.1621Z"/>
</mask>
<path d="M21.6353 15.3525L23.6353 15.3526V15.3525H21.6353ZM13.6353 15.3525L11.6353 15.3525L11.6353 15.3526L13.6353 15.3525ZM17.6353 11.1621V13.1621C18.6532 13.1621 19.6353 14.0541 19.6353 15.3525H21.6353H23.6353C23.6353 12.0223 21.0356 9.16211 17.6353 9.16211V11.1621ZM21.6353 15.3525L19.6353 15.3525C19.6352 16.651 18.653 17.543 17.6353 17.543V19.543V21.543C21.0356 21.543 23.6351 18.6826 23.6353 15.3526L21.6353 15.3525ZM17.6353 19.543V17.543C16.6175 17.543 15.6353 16.651 15.6353 15.3525L13.6353 15.3525L11.6353 15.3526C11.6354 18.6826 14.2349 21.543 17.6353 21.543V19.543ZM13.6353 15.3525H15.6353C15.6353 14.0541 16.6173 13.1621 17.6353 13.1621V11.1621V9.16211C14.2349 9.16211 11.6353 12.0223 11.6353 15.3525H13.6353Z" fill="#2C5082" mask="url(#path-4-inside-1_9039_373)"/>
<path d="M15.1353 17.762L10.1353 23.0001" stroke="#2C5082" stroke-width="1.5" stroke-linecap="round"/>
<path d="M13.6353 19.3333L15.1353 20.9047" stroke="#2C5082" stroke-width="1.5" stroke-linecap="round"/>
<path d="M12.1353 20.9048L13.6353 22.4762" stroke="#2C5082" stroke-width="1.5" stroke-linecap="round"/>
</svg>
