<svg width="28" height="22" viewBox="0 0 28 22" fill="none" xmlns="http://www.w3.org/2000/svg">
<path d="M18.5986 0.142927C20.4177 -0.102183 22.2348 -0.0182099 24.5059 0.285505L25.1572 0.372419V3.86656H23.6572V1.69078C21.7665 1.46723 20.2682 1.43126 18.7988 1.62926C17.1652 1.8494 15.5254 2.36364 13.3896 3.28355L12.8145 3.52965V20.432C14.4499 19.0718 15.9637 18.2242 17.7715 17.8197C19.4374 17.447 21.301 17.463 23.6572 17.723V12.3031C23.6572 11.8889 23.993 11.5531 24.4072 11.5531C24.8213 11.5532 25.1572 11.889 25.1572 12.3031V19.4183L24.3125 19.3109C21.5941 18.9648 19.6985 18.9259 18.0996 19.2836C16.5246 19.6359 15.1735 20.3882 13.5791 21.7474C13.3595 21.9344 13.0648 21.9689 12.8145 21.8685V21.9369L11.6807 21.263C9.68593 20.0765 8.12615 19.3775 6.50781 19.0111C4.88795 18.6444 3.159 18.5988 0.80957 18.7875L0 18.8529V0.356794L0.664062 0.280622C3.14551 -0.00453708 5.03587 -0.0563193 6.83594 0.197614C8.63853 0.45194 10.3102 1.0064 12.3594 1.88218C12.4334 1.91385 12.4972 1.95897 12.5547 2.00914L12.7959 1.90562C14.9999 0.956326 16.7793 0.388091 18.5986 0.142927ZM6.62598 1.68297C5.15649 1.47568 3.58345 1.48853 1.5 1.69957V17.2357C3.54443 17.1118 5.21878 17.1814 6.83887 17.5482C8.32494 17.8847 9.7321 18.4652 11.3145 19.3285V3.07164C9.54122 2.33688 8.11962 1.89368 6.62598 1.68297ZM22.7676 4.45543C23.1659 4.14234 23.745 4.17587 24.1045 4.5482L26.8408 7.38121C27.2243 7.77849 27.2127 8.41166 26.8154 8.79527L19.7939 15.5765C19.6079 15.756 19.3596 15.8553 19.1016 15.8558L15.8047 16.4574C15.4757 16.5173 15.1376 16.4089 14.9053 16.1683C14.6732 15.9278 14.5771 15.5867 14.6484 15.2601L15.3652 11.9877C15.374 11.7379 15.4751 11.4904 15.6689 11.3031L22.6904 4.52281L22.7676 4.45543ZM15.625 15.474L18.8438 14.8851L16.3145 12.3187L15.625 15.474ZM6.99805 13.3314C7.37612 13.3699 7.67188 13.6893 7.67188 14.0775C7.67187 14.4657 7.37612 14.7851 6.99805 14.8236L6.92188 14.8275H3.83594C3.42173 14.8275 3.08594 14.4917 3.08594 14.0775C3.08594 13.6633 3.42172 13.3275 3.83594 13.3275H6.92188L6.99805 13.3314ZM16.9082 11.4955L19.6738 14.3031L24.2246 9.90758L21.459 7.10093L16.9082 11.4955ZM9.56934 10.722C9.94744 10.7605 10.2432 11.0799 10.2432 11.4681C10.2429 11.8562 9.94734 12.1758 9.56934 12.2142L9.49316 12.2181H3.83594C3.42187 12.2181 3.08618 11.8821 3.08594 11.4681C3.08594 11.0539 3.42172 10.7181 3.83594 10.7181H9.49316L9.56934 10.722ZM22.1787 6.4066L24.9434 9.21226L26.1211 8.07652L23.3848 5.24254L22.1787 6.4066ZM8.97852 7.58629C9.3925 7.58655 9.72852 7.92224 9.72852 8.33629C9.72831 8.75016 9.39238 9.08602 8.97852 9.08629H3.83594C3.42185 9.08629 3.08614 8.75033 3.08594 8.33629C3.08594 7.92207 3.42172 7.58629 3.83594 7.58629H8.97852ZM8.97852 4.97593C9.39245 4.9762 9.72843 5.31196 9.72852 5.72593C9.72852 6.13999 9.3925 6.47567 8.97852 6.47593H3.83594C3.42172 6.47593 3.08594 6.14015 3.08594 5.72593C3.08603 5.3118 3.42178 4.97593 3.83594 4.97593H8.97852Z" fill="#2C5082"/>
</svg>
