<svg width="159" height="63" viewBox="0 0 159 63" fill="none" xmlns="http://www.w3.org/2000/svg">
<path d="M0.600006 22.4237C0.600007 16.4766 2.85464 10.773 6.86792 6.56776C10.8812 2.36249 16.3244 6.38036e-07 22 0C27.6756 -6.38035e-07 33.1188 2.36249 37.1321 6.56775C41.1454 10.773 43.4 16.4766 43.4 22.4237L39.548 22.4237C39.548 17.5471 37.6992 12.8701 34.4083 9.42183C31.1174 5.97351 26.654 4.03627 22 4.03627C17.346 4.03627 12.8826 5.97352 9.5917 9.42183C6.30081 12.8701 4.45201 17.5471 4.45201 22.4237L0.600006 22.4237Z" fill="#D5AF65"/>
<path d="M9.59998 18.6865H34.6V24.0255H9.59998V18.6865Z" fill="#D5AF65"/>
<rect x="19.1" y="9.61011" width="5" height="39.5085" fill="#D5AF65"/>
<path d="M1.10001 40.6744C12.6788 40.1161 16.6072 42.3723 22.1 47.9102C27.9145 42.2702 32.0515 40.0649 43.6 40.6744V51.2869C33.5857 50.806 28.7334 51.7373 22.1 56.5931C16.9554 52.1029 11.9389 51.1721 0.600006 51.2869L1.10001 40.6744Z" fill="#1B3556"/>
<path d="M1.60001 53.3899C12.7004 52.3595 16.2938 53.9434 22.6 59.2628C30.2026 53.8454 33.8694 52.0861 43.6 53.3899L44.6 56.5933C34.5388 56.3651 29.7346 57.7709 22.6 63.0001C16.3591 57.8965 11.6557 56.3693 0.600006 56.5933L1.60001 53.3899Z" fill="#1B3556"/>
<path d="M43.45 22.4238H39.6L40.1 51.2543L44.1 51.7882L43.45 22.4238Z" fill="#D5AF65"/>
<path d="M0.650024 22.4238H4.50002L4 51.2543L0 51.7882L0.650024 22.4238Z" fill="#D5AF65"/>
<path d="M60.615 18H68.4V18.435H60.615V18ZM60.615 23.34H68.4V23.76H60.615V23.34ZM67.545 12.87H67.395L68.28 11.88L70.05 13.275C70 13.345 69.925 13.41 69.825 13.47C69.725 13.52 69.6 13.56 69.45 13.59V24.54C69.44 24.58 69.35 24.65 69.18 24.75C69.01 24.85 68.8 24.935 68.55 25.005C68.31 25.085 68.075 25.125 67.845 25.125H67.545V12.87ZM59.76 12.87V12.06L61.74 12.87H68.61V13.29H61.605V24.555C61.605 24.635 61.535 24.73 61.395 24.84C61.255 24.95 61.065 25.045 60.825 25.125C60.595 25.205 60.345 25.245 60.075 25.245H59.76V12.87ZM74.58 14.865H85.71L86.745 13.455C86.745 13.455 86.805 13.51 86.925 13.62C87.055 13.72 87.215 13.855 87.405 14.025C87.605 14.185 87.81 14.36 88.02 14.55C88.24 14.73 88.435 14.9 88.605 15.06C88.575 15.22 88.435 15.3 88.185 15.3H74.7L74.58 14.865ZM77.745 21.675H82.875L83.79 20.355C83.79 20.355 83.845 20.405 83.955 20.505C84.065 20.595 84.205 20.72 84.375 20.88C84.555 21.04 84.735 21.21 84.915 21.39C85.105 21.56 85.275 21.72 85.425 21.87C85.385 22.03 85.245 22.11 85.005 22.11H77.865L77.745 21.675ZM80.64 11.265L83.085 11.52C83.075 11.64 83.025 11.74 82.935 11.82C82.855 11.9 82.695 11.96 82.455 12V24.81C82.455 24.87 82.38 24.94 82.23 25.02C82.09 25.1 81.91 25.17 81.69 25.23C81.47 25.3 81.235 25.335 80.985 25.335H80.64V11.265ZM79.695 14.865H81.87V15.105C81.28 16.735 80.37 18.2 79.14 19.5C77.92 20.79 76.41 21.855 74.61 22.695L74.475 22.545C75.315 21.905 76.075 21.17 76.755 20.34C77.445 19.5 78.035 18.61 78.525 17.67C79.025 16.73 79.415 15.795 79.695 14.865ZM82.53 14.865C82.84 15.555 83.225 16.205 83.685 16.815C84.145 17.425 84.655 17.985 85.215 18.495C85.775 18.995 86.36 19.44 86.97 19.83C87.59 20.22 88.21 20.54 88.83 20.79L88.77 20.955C88.41 21.025 88.09 21.2 87.81 21.48C87.54 21.75 87.335 22.1 87.195 22.53C86.415 22.01 85.715 21.385 85.095 20.655C84.485 19.915 83.95 19.07 83.49 18.12C83.04 17.16 82.66 16.105 82.35 14.955L82.53 14.865ZM92.25 13.2H102.945L103.83 12C103.83 12 103.88 12.045 103.98 12.135C104.09 12.225 104.23 12.345 104.4 12.495C104.57 12.635 104.745 12.785 104.925 12.945C105.105 13.105 105.27 13.255 105.42 13.395C105.38 13.555 105.245 13.635 105.015 13.635H92.37L92.25 13.2ZM94.74 21.945H100.215L101.1 20.805C101.1 20.805 101.155 20.85 101.265 20.94C101.375 21.02 101.51 21.13 101.67 21.27C101.84 21.4 102.015 21.545 102.195 21.705C102.375 21.855 102.545 22 102.705 22.14C102.665 22.3 102.525 22.38 102.285 22.38H94.86L94.74 21.945ZM92.49 24.51H102.09L103.14 23.19C103.14 23.19 103.205 23.24 103.335 23.34C103.465 23.43 103.63 23.555 103.83 23.715C104.03 23.865 104.24 24.03 104.46 24.21C104.68 24.39 104.88 24.555 105.06 24.705C105.03 24.865 104.89 24.945 104.64 24.945H92.61L92.49 24.51ZM91.665 18.765H103.215L104.145 17.49C104.145 17.49 104.2 17.54 104.31 17.64C104.42 17.73 104.56 17.85 104.73 18C104.91 18.14 105.095 18.295 105.285 18.465C105.475 18.635 105.645 18.8 105.795 18.96C105.755 19.12 105.615 19.2 105.375 19.2H91.785L91.665 18.765ZM95.88 15.045H101.625V15.48H95.88V15.045ZM95.88 16.89H101.625V17.325H95.88V16.89ZM95.13 11.28L97.47 11.49C97.45 11.59 97.4 11.68 97.32 11.76C97.25 11.83 97.115 11.885 96.915 11.925V18.96H95.13V11.28ZM97.77 19.92L100.095 20.115C100.085 20.215 100.045 20.3 99.975 20.37C99.905 20.44 99.775 20.49 99.585 20.52V24.63H97.77V19.92ZM100.5 11.28L102.87 11.49C102.86 11.6 102.815 11.695 102.735 11.775C102.655 11.845 102.515 11.895 102.315 11.925V18.96H100.5V11.28ZM95.265 18.765H97.41V19.005C96.88 19.895 96.12 20.655 95.13 21.285C94.15 21.915 93.015 22.425 91.725 22.815L91.62 22.62C92.46 22.15 93.19 21.58 93.81 20.91C94.43 20.23 94.915 19.515 95.265 18.765ZM100.755 18.78C101.005 19.07 101.33 19.325 101.73 19.545C102.14 19.765 102.585 19.95 103.065 20.1C103.545 20.25 104.03 20.365 104.52 20.445C105.02 20.525 105.49 20.58 105.93 20.61L105.9 20.835C105.58 21.095 105.33 21.385 105.15 21.705C104.98 22.015 104.875 22.365 104.835 22.755C104.245 22.525 103.68 22.215 103.14 21.825C102.6 21.435 102.11 20.995 101.67 20.505C101.23 20.015 100.855 19.505 100.545 18.975L100.755 18.78ZM112.755 20.55H119.265V20.97H112.755V20.55ZM112.755 22.305H119.265V22.725H112.755V22.305ZM112.755 24.105H119.265V24.525H112.755V24.105ZM118.65 18.855H118.5L119.31 17.985L120.96 19.245C120.92 19.295 120.85 19.35 120.75 19.41C120.66 19.46 120.545 19.5 120.405 19.53V24.78C120.405 24.82 120.325 24.875 120.165 24.945C120.005 25.015 119.81 25.08 119.58 25.14C119.35 25.2 119.14 25.23 118.95 25.23H118.65V18.855ZM111.48 18.855V18.12L113.325 18.855H119.37V19.275H113.22V24.78C113.22 24.84 113.145 24.915 112.995 25.005C112.855 25.095 112.67 25.175 112.44 25.245C112.22 25.315 111.99 25.35 111.75 25.35H111.48V18.855ZM113.925 15.165C114.525 15.225 114.995 15.34 115.335 15.51C115.685 15.67 115.93 15.86 116.07 16.08C116.21 16.29 116.265 16.495 116.235 16.695C116.215 16.885 116.135 17.05 115.995 17.19C115.855 17.32 115.675 17.395 115.455 17.415C115.245 17.425 115.02 17.345 114.78 17.175C114.73 16.835 114.605 16.49 114.405 16.14C114.205 15.78 114 15.485 113.79 15.255L113.925 15.165ZM117.3 12.375C117.58 13.285 118 14.06 118.56 14.7C119.12 15.33 119.775 15.85 120.525 16.26C121.275 16.67 122.075 16.995 122.925 17.235L122.91 17.4C122.24 17.55 121.795 18.015 121.575 18.795C120.775 18.395 120.08 17.915 119.49 17.355C118.9 16.795 118.405 16.12 118.005 15.33C117.615 14.53 117.31 13.58 117.09 12.48L117.3 12.375ZM108.96 14.34H114.585L115.425 13.275C115.425 13.275 115.51 13.345 115.68 13.485C115.86 13.615 116.065 13.78 116.295 13.98C116.535 14.17 116.75 14.35 116.94 14.52C116.9 14.68 116.765 14.76 116.535 14.76H109.08L108.96 14.34ZM116.28 12.375H121.365V12.795H116.415L116.28 12.375ZM120.195 12.375H120.015L120.93 11.475L122.49 12.81C122.44 12.89 122.37 12.945 122.28 12.975C122.2 13.005 122.075 13.03 121.905 13.05C121.425 14.33 120.655 15.42 119.595 16.32C118.535 17.22 117.105 17.88 115.305 18.3L115.215 18.105C116.615 17.515 117.72 16.73 118.53 15.75C119.34 14.77 119.895 13.645 120.195 12.375ZM112.8 12.84H114.225L114.99 11.82C114.99 11.82 115.07 11.885 115.23 12.015C115.4 12.145 115.595 12.305 115.815 12.495C116.045 12.685 116.245 12.865 116.415 13.035C116.375 13.195 116.24 13.275 116.01 13.275H112.8V12.84ZM112.065 11.25L114.225 11.43C114.215 11.53 114.17 11.62 114.09 11.7C114.01 11.77 113.87 11.82 113.67 11.85V14.46H112.065V11.25ZM112.065 14.355H113.67V16.89C113.67 17.23 113.625 17.525 113.535 17.775C113.455 18.015 113.285 18.205 113.025 18.345C112.775 18.485 112.38 18.58 111.84 18.63C111.83 18.42 111.815 18.235 111.795 18.075C111.775 17.905 111.735 17.77 111.675 17.67C111.615 17.57 111.525 17.485 111.405 17.415C111.295 17.335 111.115 17.28 110.865 17.25V17.04C110.865 17.04 110.93 17.045 111.06 17.055C111.19 17.055 111.33 17.06 111.48 17.07C111.64 17.08 111.755 17.085 111.825 17.085C111.935 17.085 112 17.065 112.02 17.025C112.05 16.985 112.065 16.93 112.065 16.86V14.355ZM110.25 14.94L112.05 15.645C112.01 15.725 111.945 15.79 111.855 15.84C111.765 15.89 111.635 15.91 111.465 15.9C111.115 16.47 110.71 16.975 110.25 17.415C109.79 17.855 109.315 18.215 108.825 18.495L108.63 18.345C108.94 17.945 109.24 17.445 109.53 16.845C109.83 16.235 110.07 15.6 110.25 14.94ZM132.255 11.475L134.22 12.42C134.18 12.5 134.115 12.56 134.025 12.6C133.935 12.63 133.795 12.63 133.605 12.6C133.125 13.5 132.515 14.43 131.775 15.39C131.045 16.35 130.185 17.265 129.195 18.135C128.205 18.995 127.075 19.73 125.805 20.34L125.67 20.19C126.46 19.63 127.195 19 127.875 18.3C128.555 17.59 129.175 16.85 129.735 16.08C130.295 15.3 130.785 14.515 131.205 13.725C131.635 12.935 131.985 12.185 132.255 11.475ZM126.495 17.655H131.58V18.09H126.63L126.495 17.655ZM129.165 19.08L131.325 19.275C131.295 19.475 131.13 19.595 130.83 19.635V23.355C130.83 23.735 130.78 24.06 130.68 24.33C130.59 24.61 130.39 24.83 130.08 24.99C129.77 25.16 129.295 25.275 128.655 25.335C128.635 25.075 128.6 24.845 128.55 24.645C128.5 24.455 128.42 24.3 128.31 24.18C128.19 24.05 128.035 23.94 127.845 23.85C127.665 23.76 127.39 23.685 127.02 23.625V23.415C127.02 23.415 127.1 23.42 127.26 23.43C127.42 23.44 127.61 23.455 127.83 23.475C128.06 23.485 128.275 23.495 128.475 23.505C128.675 23.515 128.81 23.52 128.88 23.52C129 23.52 129.075 23.5 129.105 23.46C129.145 23.42 129.165 23.355 129.165 23.265V19.08ZM125.985 20.85C126.315 20.82 126.745 20.775 127.275 20.715C127.815 20.655 128.425 20.58 129.105 20.49C129.795 20.4 130.525 20.305 131.295 20.205C132.075 20.095 132.865 19.985 133.665 19.875L133.695 20.085C132.975 20.355 132.08 20.68 131.01 21.06C129.94 21.43 128.645 21.845 127.125 22.305C127.035 22.495 126.9 22.615 126.72 22.665L125.985 20.85ZM130.965 17.655H130.8L131.61 16.83L133.08 18.105C133.02 18.165 132.945 18.205 132.855 18.225C132.765 18.245 132.645 18.265 132.495 18.285C132.145 18.505 131.735 18.745 131.265 19.005C130.805 19.265 130.35 19.47 129.9 19.62H129.675C129.845 19.45 130.01 19.245 130.17 19.005C130.33 18.755 130.48 18.51 130.62 18.27C130.77 18.03 130.885 17.825 130.965 17.655ZM128.31 11.295L130.515 11.475C130.505 11.575 130.46 11.665 130.38 11.745C130.3 11.815 130.16 11.865 129.96 11.895V15.885H128.31V11.295ZM126.405 13.305H130.005L130.725 12.345C130.725 12.345 130.795 12.41 130.935 12.54C131.085 12.66 131.26 12.81 131.46 12.99C131.66 13.16 131.84 13.325 132 13.485C131.97 13.645 131.845 13.725 131.625 13.725H126.525L126.405 13.305ZM125.805 15.675H132.045L132.75 14.73C132.75 14.73 132.825 14.795 132.975 14.925C133.125 15.045 133.3 15.19 133.5 15.36C133.7 15.53 133.875 15.695 134.025 15.855C133.995 16.015 133.865 16.095 133.635 16.095H125.925L125.805 15.675ZM134.595 15.075C134.805 16.435 135.135 17.665 135.585 18.765C136.045 19.865 136.655 20.825 137.415 21.645C138.185 22.455 139.125 23.125 140.235 23.655L140.19 23.805C139.78 23.885 139.45 24.04 139.2 24.27C138.95 24.51 138.77 24.83 138.66 25.23C137.73 24.57 136.975 23.75 136.395 22.77C135.825 21.79 135.385 20.68 135.075 19.44C134.775 18.2 134.55 16.86 134.4 15.42L134.595 15.075ZM137.055 14.64H139.005C138.875 15.89 138.65 17.065 138.33 18.165C138.01 19.255 137.545 20.26 136.935 21.18C136.325 22.09 135.525 22.895 134.535 23.595C133.545 24.285 132.315 24.855 130.845 25.305L130.755 25.155C131.895 24.555 132.855 23.88 133.635 23.13C134.425 22.38 135.055 21.565 135.525 20.685C136.005 19.795 136.365 18.845 136.605 17.835C136.845 16.825 136.995 15.76 137.055 14.64ZM134.715 11.31L137.13 11.895C137.1 11.995 137.04 12.075 136.95 12.135C136.86 12.195 136.725 12.23 136.545 12.24C136.295 13.25 135.99 14.19 135.63 15.06C135.27 15.92 134.855 16.71 134.385 17.43C133.925 18.14 133.4 18.77 132.81 19.32L132.615 19.2C132.945 18.53 133.25 17.77 133.53 16.92C133.82 16.06 134.065 15.155 134.265 14.205C134.465 13.245 134.615 12.28 134.715 11.31ZM134.655 14.64H137.52L138.465 13.425C138.465 13.425 138.52 13.47 138.63 13.56C138.75 13.65 138.895 13.77 139.065 13.92C139.235 14.06 139.415 14.21 139.605 14.37C139.805 14.53 139.98 14.685 140.13 14.835C140.09 14.995 139.955 15.075 139.725 15.075H134.655V14.64ZM145.875 15.945H152.415L153.12 14.865C153.12 14.865 153.195 14.935 153.345 15.075C153.495 15.215 153.665 15.385 153.855 15.585C154.055 15.775 154.23 15.96 154.38 16.14C154.34 16.3 154.21 16.38 153.99 16.38H145.995L145.875 15.945ZM150.6 13.5L152.715 13.695C152.705 13.805 152.655 13.895 152.565 13.965C152.485 14.035 152.36 14.08 152.19 14.1V21.195C152.19 21.565 152.14 21.885 152.04 22.155C151.94 22.415 151.73 22.625 151.41 22.785C151.1 22.935 150.62 23.04 149.97 23.1C149.94 22.86 149.895 22.65 149.835 22.47C149.785 22.29 149.695 22.14 149.565 22.02C149.435 21.9 149.26 21.8 149.04 21.72C148.83 21.63 148.515 21.555 148.095 21.495V21.27C148.095 21.27 148.185 21.28 148.365 21.3C148.555 21.31 148.78 21.325 149.04 21.345C149.3 21.355 149.545 21.37 149.775 21.39C150.005 21.4 150.165 21.405 150.255 21.405C150.395 21.405 150.485 21.385 150.525 21.345C150.575 21.295 150.6 21.215 150.6 21.105V13.5ZM146.97 16.905C147.61 17.105 148.105 17.345 148.455 17.625C148.815 17.905 149.055 18.19 149.175 18.48C149.305 18.76 149.345 19.02 149.295 19.26C149.255 19.5 149.15 19.695 148.98 19.845C148.82 19.985 148.625 20.055 148.395 20.055C148.175 20.045 147.945 19.93 147.705 19.71C147.715 19.4 147.675 19.08 147.585 18.75C147.505 18.42 147.395 18.105 147.255 17.805C147.115 17.495 146.97 17.225 146.82 16.995L146.97 16.905ZM144.825 23.67H155.205V24.105H144.825V23.67ZM154.47 12.435H154.32L155.175 11.475L156.855 12.825C156.805 12.895 156.73 12.96 156.63 13.02C156.53 13.07 156.4 13.11 156.24 13.14V24.705C156.24 24.745 156.16 24.81 156 24.9C155.84 25 155.645 25.085 155.415 25.155C155.195 25.225 154.975 25.26 154.755 25.26H154.47V12.435ZM143.715 12.435V11.655L145.59 12.435H155.04V12.855H145.44V24.705C145.44 24.775 145.37 24.86 145.23 24.96C145.1 25.07 144.925 25.165 144.705 25.245C144.495 25.325 144.26 25.365 144 25.365H143.715V12.435Z" fill="#1B3556"/>
<path d="M57.936 40.872H75.312L77.064 38.664C77.064 38.664 77.168 38.744 77.376 38.904C77.6 39.064 77.872 39.272 78.192 39.528C78.528 39.784 78.88 40.056 79.248 40.344C79.616 40.632 79.944 40.904 80.232 41.16C80.168 41.416 79.936 41.544 79.536 41.544H58.128L57.936 40.872ZM66.984 33.72L71.016 34.08C70.984 34.272 70.896 34.424 70.752 34.536C70.624 34.648 70.416 34.728 70.128 34.776C70.096 36.248 70.048 37.688 69.984 39.096C69.936 40.504 69.808 41.872 69.6 43.2C69.392 44.512 69.04 45.776 68.544 46.992C68.064 48.208 67.384 49.368 66.504 50.472C65.624 51.56 64.48 52.584 63.072 53.544C61.68 54.488 59.96 55.36 57.912 56.16L57.696 55.8C59.648 54.632 61.224 53.4 62.424 52.104C63.624 50.808 64.536 49.456 65.16 48.048C65.8 46.64 66.24 45.168 66.48 43.632C66.736 42.096 66.88 40.504 66.912 38.856C66.96 37.192 66.984 35.48 66.984 33.72ZM70.008 41.016C70.184 42.184 70.504 43.336 70.968 44.472C71.432 45.608 72.064 46.704 72.864 47.76C73.68 48.816 74.712 49.8 75.96 50.712C77.208 51.608 78.704 52.408 80.448 53.112L80.4 53.376C79.68 53.52 79.096 53.816 78.648 54.264C78.216 54.712 77.936 55.344 77.808 56.16C76.304 55.248 75.056 54.192 74.064 52.992C73.072 51.792 72.272 50.512 71.664 49.152C71.056 47.776 70.6 46.4 70.296 45.024C69.992 43.648 69.768 42.336 69.624 41.088L70.008 41.016ZM90.72 33.84L94.296 34.2C94.264 34.376 94.184 34.528 94.056 34.656C93.944 34.768 93.728 34.848 93.408 34.896V53.808H90.72V33.84ZM96.192 33.84L99.792 34.2C99.776 34.376 99.704 34.528 99.576 34.656C99.448 34.768 99.232 34.848 98.928 34.896V53.808H96.192V33.84ZM85.032 39.312V38.088L88.056 39.312H102.792V39.984H87.84V55.056C87.84 55.168 87.728 55.304 87.504 55.464C87.28 55.624 86.984 55.76 86.616 55.872C86.264 56 85.888 56.064 85.488 56.064H85.032V39.312ZM101.88 39.312H101.64L102.96 37.824L105.672 39.936C105.608 40.048 105.488 40.152 105.312 40.248C105.152 40.328 104.952 40.4 104.712 40.464V55.008C104.696 55.088 104.56 55.192 104.304 55.32C104.048 55.448 103.736 55.568 103.368 55.68C103.016 55.792 102.672 55.848 102.336 55.848H101.88V39.312ZM86.304 53.352H102.888V54.048H86.304V53.352ZM86.304 46.008H102.888V46.704H86.304V46.008ZM119.808 33.96L122.952 35.472C122.888 35.6 122.784 35.696 122.64 35.76C122.496 35.808 122.272 35.808 121.968 35.76C121.2 37.2 120.224 38.688 119.04 40.224C117.872 41.76 116.496 43.224 114.912 44.616C113.328 45.992 111.52 47.168 109.488 48.144L109.272 47.904C110.536 47.008 111.712 46 112.8 44.88C113.888 43.744 114.88 42.56 115.776 41.328C116.672 40.08 117.456 38.824 118.128 37.56C118.816 36.296 119.376 35.096 119.808 33.96ZM110.592 43.848H118.728V44.544H110.808L110.592 43.848ZM114.864 46.128L118.32 46.44C118.272 46.76 118.008 46.952 117.528 47.016V52.968C117.528 53.576 117.448 54.096 117.288 54.528C117.144 54.976 116.824 55.328 116.328 55.584C115.832 55.856 115.072 56.04 114.048 56.136C114.016 55.72 113.96 55.352 113.88 55.032C113.8 54.728 113.672 54.48 113.496 54.288C113.304 54.08 113.056 53.904 112.752 53.76C112.464 53.616 112.024 53.496 111.432 53.4V53.064C111.432 53.064 111.56 53.072 111.816 53.088C112.072 53.104 112.376 53.128 112.728 53.16C113.096 53.176 113.44 53.192 113.76 53.208C114.08 53.224 114.296 53.232 114.408 53.232C114.6 53.232 114.72 53.2 114.768 53.136C114.832 53.072 114.864 52.968 114.864 52.824V46.128ZM109.776 48.96C110.304 48.912 110.992 48.84 111.84 48.744C112.704 48.648 113.68 48.528 114.768 48.384C115.872 48.24 117.04 48.088 118.272 47.928C119.52 47.752 120.784 47.576 122.064 47.4L122.112 47.736C120.96 48.168 119.528 48.688 117.816 49.296C116.104 49.888 114.032 50.552 111.6 51.288C111.456 51.592 111.24 51.784 110.952 51.864L109.776 48.96ZM117.744 43.848H117.48L118.776 42.528L121.128 44.568C121.032 44.664 120.912 44.728 120.768 44.76C120.624 44.792 120.432 44.824 120.192 44.856C119.632 45.208 118.976 45.592 118.224 46.008C117.488 46.424 116.76 46.752 116.04 46.992H115.68C115.952 46.72 116.216 46.392 116.472 46.008C116.728 45.608 116.968 45.216 117.192 44.832C117.432 44.448 117.616 44.12 117.744 43.848ZM113.496 33.672L117.024 33.96C117.008 34.12 116.936 34.264 116.808 34.392C116.68 34.504 116.456 34.584 116.136 34.632V41.016H113.496V33.672ZM110.448 36.888H116.208L117.36 35.352C117.36 35.352 117.472 35.456 117.696 35.664C117.936 35.856 118.216 36.096 118.536 36.384C118.856 36.656 119.144 36.92 119.4 37.176C119.352 37.432 119.152 37.56 118.8 37.56H110.64L110.448 36.888ZM109.488 40.68H119.472L120.6 39.168C120.6 39.168 120.72 39.272 120.96 39.48C121.2 39.672 121.48 39.904 121.8 40.176C122.12 40.448 122.4 40.712 122.64 40.968C122.592 41.224 122.384 41.352 122.016 41.352H109.68L109.488 40.68ZM123.552 39.72C123.888 41.896 124.416 43.864 125.136 45.624C125.872 47.384 126.848 48.92 128.064 50.232C129.296 51.528 130.8 52.6 132.576 53.448L132.504 53.688C131.848 53.816 131.32 54.064 130.92 54.432C130.52 54.816 130.232 55.328 130.056 55.968C128.568 54.912 127.36 53.6 126.432 52.032C125.52 50.464 124.816 48.688 124.32 46.704C123.84 44.72 123.48 42.576 123.24 40.272L123.552 39.72ZM127.488 39.024H130.608C130.4 41.024 130.04 42.904 129.528 44.664C129.016 46.408 128.272 48.016 127.296 49.488C126.32 50.944 125.04 52.232 123.456 53.352C121.872 54.456 119.904 55.368 117.552 56.088L117.408 55.848C119.232 54.888 120.768 53.808 122.016 52.608C123.28 51.408 124.288 50.104 125.04 48.696C125.808 47.272 126.384 45.752 126.768 44.136C127.152 42.52 127.392 40.816 127.488 39.024ZM123.744 33.696L127.608 34.632C127.56 34.792 127.464 34.92 127.32 35.016C127.176 35.112 126.96 35.168 126.672 35.184C126.272 36.8 125.784 38.304 125.208 39.696C124.632 41.072 123.968 42.336 123.216 43.488C122.48 44.624 121.64 45.632 120.696 46.512L120.384 46.32C120.912 45.248 121.4 44.032 121.848 42.672C122.312 41.296 122.704 39.848 123.024 38.328C123.344 36.792 123.584 35.248 123.744 33.696ZM123.648 39.024H128.232L129.744 37.08C129.744 37.08 129.832 37.152 130.008 37.296C130.2 37.44 130.432 37.632 130.704 37.872C130.976 38.096 131.264 38.336 131.568 38.592C131.888 38.848 132.168 39.096 132.408 39.336C132.344 39.592 132.128 39.72 131.76 39.72H123.648V39.024ZM149.256 48.528C150.6 48.912 151.72 49.36 152.616 49.872C153.528 50.384 154.24 50.928 154.752 51.504C155.28 52.064 155.64 52.616 155.832 53.16C156.04 53.704 156.112 54.2 156.048 54.648C155.984 55.096 155.816 55.448 155.544 55.704C155.288 55.976 154.96 56.12 154.56 56.136C154.176 56.152 153.752 55.992 153.288 55.656C153.144 55.064 152.92 54.456 152.616 53.832C152.328 53.192 151.992 52.568 151.608 51.96C151.224 51.336 150.808 50.752 150.36 50.208C149.928 49.648 149.48 49.144 149.016 48.696L149.256 48.528ZM136.68 46.392H152.544L154.2 44.352C154.2 44.352 154.296 44.424 154.488 44.568C154.696 44.712 154.952 44.912 155.256 45.168C155.576 45.408 155.904 45.664 156.24 45.936C156.592 46.192 156.904 46.448 157.176 46.704C157.112 46.944 156.888 47.064 156.504 47.064H136.872L136.68 46.392ZM140.832 42.192H148.416L149.928 40.272C149.928 40.272 150.016 40.344 150.192 40.488C150.384 40.632 150.624 40.816 150.912 41.04C151.2 41.264 151.504 41.504 151.824 41.76C152.16 42.016 152.456 42.256 152.712 42.48C152.648 42.736 152.432 42.864 152.064 42.864H141.024L140.832 42.192ZM137.16 52.776C137.88 52.776 138.8 52.752 139.92 52.704C141.04 52.656 142.312 52.608 143.736 52.56C145.16 52.496 146.688 52.424 148.32 52.344C149.968 52.248 151.664 52.152 153.408 52.056L153.432 52.416C152.44 52.704 151.296 53.008 150 53.328C148.704 53.648 147.2 53.984 145.488 54.336C143.776 54.704 141.808 55.112 139.584 55.56C139.424 55.864 139.184 56.04 138.864 56.088L137.16 52.776ZM143.088 46.608H146.904C146.392 47.424 145.808 48.288 145.152 49.2C144.512 50.096 143.856 50.952 143.184 51.768C142.528 52.584 141.896 53.272 141.288 53.832H140.76C140.952 53.368 141.16 52.84 141.384 52.248C141.608 51.64 141.824 51.008 142.032 50.352C142.256 49.696 142.456 49.04 142.632 48.384C142.824 47.728 142.976 47.136 143.088 46.608ZM147.696 35.328C147.152 36.224 146.448 37.112 145.584 37.992C144.72 38.856 143.744 39.688 142.656 40.488C141.568 41.272 140.416 41.984 139.2 42.624C137.984 43.248 136.752 43.776 135.504 44.208L135.36 43.944C136.416 43.32 137.456 42.584 138.48 41.736C139.504 40.888 140.448 39.976 141.312 39C142.192 38.024 142.944 37.056 143.568 36.096C144.192 35.136 144.624 34.24 144.864 33.408L149.28 34.488C149.232 34.648 149.12 34.776 148.944 34.872C148.768 34.952 148.48 35.008 148.08 35.04C148.64 35.744 149.312 36.392 150.096 36.984C150.88 37.56 151.728 38.088 152.64 38.568C153.568 39.032 154.512 39.44 155.472 39.792C156.448 40.128 157.384 40.392 158.28 40.584L158.256 40.968C157.824 41.096 157.448 41.312 157.128 41.616C156.824 41.92 156.568 42.264 156.36 42.648C156.168 43.032 156.04 43.416 155.976 43.8C154.744 43.224 153.584 42.52 152.496 41.688C151.424 40.84 150.48 39.88 149.664 38.808C148.848 37.72 148.192 36.56 147.696 35.328Z" fill="#1B3556"/>
</svg>
